# xmcd
#
# Track frame offsets: 
#        150
#        16650
#        33455
#        49814
#        66226
#        82561
#        97006
#        114089
#        132713
#        150518
#        177183
#        194179
#        210005
#        226895
#        243108
#        258849
#        275764
#        289596
#        306038
#        324380
#        340173
#
# Disc length: 4794 seconds
#
# Revision: 1
# Processed by: cddbd v1.5.2PL0 Copyright (c) Steve Scherf et al.
# Submitted via: ExactAudioCopy v0.99pb5
#
DISCID=1612b815
DTITLE=Hazell Dean - Evergreen - The Very Best Of [CD 1)
DYEAR=2012
DGENRE=Disco
TTITLE0=Whatever I Do (Wherever I Go)
TTITLE1=Who's Leaving Who?
TTITLE2=Searchin' (I Gotta Find A Man)
TTITLE3=Maybe (We Should Call It A Day)
TTITLE4=Turn It Into Love
TTITLE5=Back In My Arms (Once Again)
TTITLE6=No Fool (For Love)
TTITLE7=Love Pains
TTITLE8=They Say It's Gonna Rain
TTITLE9=Evergreen
TTITLE10=Jealous Love
TTITLE11=Better Off Without You
TTITLE12=Stand Up
TTITLE13=Always Doesn't Mean Forever
TTITLE14=E.S.P. (Extra Sensual Persuasion)
TTITLE15=Keeping It Together
TTITLE16=Call And Say
TTITLE17=Can't Help The Way That I Feel
TTITLE18=More Than Words Can Say
TTITLE19=Are You Man Enough?
TTITLE20=Tell Me (You'll Wait For Me)
EXTD=
EXTT0=
EXTT1=
EXTT2=
EXTT3=
EXTT4=
EXTT5=
EXTT6=
EXTT7=
EXTT8=
EXTT9=
EXTT10=
EXTT11=
EXTT12=
EXTT13=
EXTT14=
EXTT15=
EXTT16=
EXTT17=
EXTT18=
EXTT19=
EXTT20=
PLAYORDER=
